# xmcd CD database file
# Copyright (C) 1997 Ti Kan
#
# Track frame offsets:
#  183
#  9630
#  19293
#  29630
#  42180
#  51510
#  60523
#  72528
#  83410
#  93683
#  101963
#  113510
#  122195
#  133795
#  144148
#  155235
#  168068
#  177508
#  191673
#  206438
#  214840
#  224185
#  230988
#  243218
#
# Disc length: 3363 seconds
#
# Revision: 1
# Processed by: cddbd v1.4b41PL1 Copyright (c) Steve Scherf et al.
# Submitted via: CDWizzard Release:4.32
#
DISCID=6e0d2118
DTITLE=Elvis Presley - Elvis Presley: 1956-1961
DYEAR=1900
DGENRE=
TTITLE0=Wooden Heart
TTITLE1=Heartbreak Hotel
TTITLE2=Hound Dog
TTITLE3=Love Me Tender
TTITLE4=Don't Be Cruel
TTITLE5=All Shook Up
TTITLE6=I Want You I Need You I Love You
TTITLE7=Jailhouse Rock
TTITLE8=Stuck On You
TTITLE9=Teddy Bear
TTITLE10=Too Much
TTITLE11=Hard Headed Woman
TTITLE12=One Night
TTITLE13=Wear My Ring Around Your Neck
TTITLE14=A Fool Such As I
TTITLE15=Don't
TTITLE16=A Big Hunk Of Love
TTITLE17=Are You Lonesome Tonight
TTITLE18=It's Now Or Never
TTITLE19=I Got Stung
TTITLE20=I Need Your Love Tonight
TTITLE21=Party
TTITLE22=A Mess Of Blues
TTITLE23=Blue Suede Shoes
EXTD=
EXTT0=
EXTT1=
EXTT2=
EXTT3=
EXTT4=
EXTT5=
EXTT6=
EXTT7=
EXTT8=
EXTT9=
EXTT10=
EXTT11=
EXTT12=
EXTT13=
EXTT14=
EXTT15=
EXTT16=
EXTT17=
EXTT18=
EXTT19=
EXTT20=
EXTT21=
EXTT22=
EXTT23=
PLAYORDER=
